<svg width="347" height="270" viewBox="0 0 347 270" fill="none" xmlns="http://www.w3.org/2000/svg">
<rect width="347" height="270" rx="50" fill="#777E90"/>
<path d="M232.003 92.1952H114.998C112.509 92.1952 110.498 93.9342 110.498 96.0866V173.914C110.498 176.066 112.509 177.805 114.998 177.805H232.003C234.493 177.805 236.504 176.066 236.504 173.914V96.0866C236.504 93.9342 234.493 92.1952 232.003 92.1952ZM149.031 109.706C153.995 109.706 158.031 113.196 158.031 117.489C158.031 121.782 153.995 125.272 149.031 125.272C144.067 125.272 140.031 121.782 140.031 117.489C140.031 113.196 144.067 109.706 149.031 109.706ZM221.301 162.86C221.097 163.009 220.838 163.09 220.57 163.091H126.418C125.799 163.091 125.292 162.653 125.292 162.118C125.292 161.887 125.391 161.668 125.56 161.486L149.509 136.921C149.903 136.508 150.62 136.459 151.098 136.8C151.14 136.836 151.197 136.873 151.239 136.921C158.9 144.786 171.538 144.789 179.203 136.928L187.451 128.47C187.845 128.056 188.562 128.008 189.041 128.348C189.083 128.385 189.139 128.421 189.181 128.47L221.47 161.498C221.836 161.899 221.78 162.519 221.301 162.86Z" fill="#FCFCFD"/>
</svg>
