<svg width="150" height="29" viewBox="0 0 150 29" fill="none" xmlns="http://www.w3.org/2000/svg">
<path d="M0.0780001 28.146C0.227333 26.7367 0.358 25.2387 0.47 23.652C0.591333 22.0747 0.694 20.4833 0.778 18.878C0.871333 17.2727 0.941333 15.7327 0.988 14.258C1.044 12.7833 1.086 11.4393 1.114 10.226C1.142 9.00333 1.156 7.99067 1.156 7.188C1.52933 7.076 1.968 6.99667 2.472 6.95C2.976 6.894 3.452 6.866 3.9 6.866C3.90933 7.10867 3.914 7.44933 3.914 7.888C3.92333 8.31733 3.928 8.7 3.928 9.036C4.16133 8.77467 4.51133 8.48067 4.978 8.154C5.454 7.818 6.03267 7.524 6.714 7.272C7.40467 7.02 8.16533 6.894 8.996 6.894C10.8347 6.894 12.2347 7.482 13.196 8.658C14.1667 9.834 14.652 11.4673 14.652 13.558C14.652 15.0233 14.4 16.302 13.896 17.394C13.4013 18.4767 12.6873 19.3167 11.754 19.914C10.8207 20.5113 9.696 20.81 8.38 20.81C7.77333 20.81 7.134 20.7213 6.462 20.544C5.79933 20.3667 5.202 20.1567 4.67 19.914C4.138 19.662 3.76933 19.4287 3.564 19.214C3.564 19.4193 3.54533 19.7927 3.508 20.334C3.48 20.8753 3.44267 21.5007 3.396 22.21C3.34933 22.9287 3.298 23.6567 3.242 24.394C3.186 25.1313 3.13 25.8127 3.074 26.438C3.02733 27.0633 2.976 27.5487 2.92 27.894C2.60267 27.95 2.25733 27.9967 1.884 28.034C1.52 28.0713 1.17467 28.0993 0.848 28.118C0.521333 28.1367 0.264667 28.146 0.0780001 28.146ZM8.002 18.052C8.94467 18.052 9.696 17.8607 10.256 17.478C10.8253 17.0953 11.236 16.5493 11.488 15.84C11.74 15.1213 11.866 14.2673 11.866 13.278C11.866 11.9993 11.5627 11.01 10.956 10.31C10.3493 9.60067 9.458 9.246 8.282 9.246C7.56333 9.246 6.90067 9.37667 6.294 9.638C5.68733 9.89933 5.17867 10.1933 4.768 10.52C4.35733 10.8467 4.068 11.1173 3.9 11.332C3.9 11.4907 3.89067 11.7893 3.872 12.228C3.86267 12.6667 3.84867 13.1613 3.83 13.712C3.81133 14.2627 3.79267 14.79 3.774 15.294C3.76467 15.7887 3.75533 16.1713 3.746 16.442C3.942 16.61 4.23133 16.8247 4.614 17.086C4.99667 17.338 5.47267 17.562 6.042 17.758C6.61133 17.954 7.26467 18.052 8.002 18.052ZM19.8731 9.596C20.1531 9.12 20.5591 8.686 21.0911 8.294C21.6325 7.902 22.2391 7.58933 22.9111 7.356C23.5925 7.12267 24.2738 7.006 24.9551 7.006C25.3938 7.006 25.8371 7.048 26.2851 7.132C26.7331 7.20667 27.0831 7.314 27.3351 7.454L26.7751 10.268C26.5511 10.1747 26.2618 10.0767 25.9071 9.974C25.5618 9.862 25.1325 9.806 24.6191 9.806C24.0685 9.806 23.5178 9.90867 22.9671 10.114C22.4258 10.31 21.9265 10.5807 21.4691 10.926C21.0118 11.2713 20.6291 11.668 20.3211 12.116C20.4518 12.7693 20.5778 13.5673 20.6991 14.51C20.8298 15.4527 20.9465 16.4187 21.0491 17.408C21.1518 18.3973 21.2358 19.3027 21.3011 20.124C21.3665 20.936 21.3991 21.5473 21.3991 21.958C20.9978 21.9953 20.5078 22.0187 19.9291 22.028C19.3505 22.0373 18.8185 22.0373 18.3331 22.028C18.3331 21.16 18.3145 20.2453 18.2771 19.284C18.2398 18.3133 18.1791 17.324 18.0951 16.316C18.0205 15.2987 17.9225 14.286 17.8011 13.278C17.6798 12.27 17.5351 11.2947 17.3671 10.352C17.2085 9.4 17.0265 8.49933 16.8211 7.65C17.0731 7.57533 17.3671 7.50067 17.7031 7.426C18.0485 7.35133 18.3658 7.286 18.6551 7.23C18.9445 7.174 19.1405 7.14133 19.2431 7.132C19.3645 7.44933 19.4905 7.86 19.6211 8.364C19.7518 8.868 19.8358 9.27867 19.8731 9.596ZM35.8788 22.434C33.4335 22.434 31.6275 21.7527 30.4608 20.39C29.2942 19.0273 28.7108 17.0673 28.7108 14.51C28.7108 12.8953 29.0095 11.5327 29.6068 10.422C30.2135 9.31133 31.0535 8.46667 32.1268 7.888C33.2095 7.30933 34.4695 7.02 35.9068 7.02C37.4282 7.02 38.6835 7.37467 39.6728 8.084C40.6622 8.784 41.3948 9.764 41.8708 11.024C42.3562 12.2747 42.5988 13.7307 42.5988 15.392C42.5988 16.82 42.3328 18.0613 41.8008 19.116C41.2688 20.1613 40.4988 20.978 39.4908 21.566C38.4922 22.1447 37.2882 22.434 35.8788 22.434ZM35.7668 19.928C36.5228 19.928 37.1715 19.788 37.7128 19.508C38.2542 19.228 38.6928 18.8547 39.0288 18.388C39.3648 17.912 39.6122 17.38 39.7708 16.792C39.9388 16.204 40.0228 15.602 40.0228 14.986C40.0228 13.866 39.8688 12.8673 39.5608 11.99C39.2528 11.1127 38.7862 10.4267 38.1608 9.932C37.5355 9.428 36.7375 9.176 35.7668 9.176C34.8148 9.176 34.0168 9.40467 33.3728 9.862C32.7288 10.3193 32.2435 10.9493 31.9168 11.752C31.5995 12.5547 31.4408 13.474 31.4408 14.51C31.4408 16.106 31.8095 17.408 32.5468 18.416C33.2842 19.424 34.3575 19.928 35.7668 19.928ZM146.94 18.192C147.584 18.192 148.106 18.416 148.508 18.864C148.909 19.3027 149.11 19.8533 149.11 20.516C149.11 21.1227 148.904 21.6127 148.494 21.986C148.092 22.35 147.612 22.532 147.052 22.532C146.641 22.532 146.249 22.4387 145.876 22.252C145.512 22.0653 145.208 21.8087 144.966 21.482C144.732 21.1553 144.616 20.7773 144.616 20.348C144.616 19.9467 144.723 19.5873 144.938 19.27C145.152 18.9433 145.432 18.682 145.778 18.486C146.132 18.29 146.52 18.192 146.94 18.192Z" fill="#B61A1A"/>
<path d="M51.9351 6.74C53.7644 6.74 55.1178 7.14133 55.9951 7.944C56.8724 8.74667 57.3111 10.0253 57.3111 11.78V22H55.5191L55.0431 19.872H54.9311C54.2778 20.6933 53.5871 21.3 52.8591 21.692C52.1311 22.084 51.1418 22.28 49.8911 22.28C48.5284 22.28 47.3991 21.9253 46.5031 21.216C45.6071 20.488 45.1591 19.3587 45.1591 17.828C45.1591 16.3347 45.7471 15.1867 46.9231 14.384C48.0991 13.5627 49.9098 13.1147 52.3551 13.04L54.9031 12.956V12.06C54.9031 10.8093 54.6324 9.94133 54.0911 9.456C53.5498 8.97067 52.7844 8.728 51.7951 8.728C51.0111 8.728 50.2644 8.84933 49.5551 9.092C48.8458 9.316 48.1831 9.57733 47.5671 9.876L46.8111 8.028C47.4644 7.67333 48.2391 7.37467 49.1351 7.132C50.0311 6.87067 50.9644 6.74 51.9351 6.74ZM54.8751 14.664L52.6631 14.748C50.7964 14.8227 49.4991 15.1213 48.7711 15.644C48.0618 16.1667 47.7071 16.904 47.7071 17.856C47.7071 18.696 47.9591 19.312 48.4631 19.704C48.9858 20.096 49.6484 20.292 50.4511 20.292C51.7018 20.292 52.7471 19.9467 53.5871 19.256C54.4458 18.5467 54.8751 17.464 54.8751 16.008V14.664ZM64.2704 6.992V16.148C64.2704 16.3907 64.2611 16.736 64.2424 17.184C64.2237 17.6133 64.1957 18.0613 64.1584 18.528C64.1397 18.976 64.1211 19.3213 64.1024 19.564L72.1384 6.992H75.1624V22H72.8664V13.152C72.8664 12.8533 72.8664 12.4613 72.8664 11.976C72.8851 11.4907 72.9037 11.0147 72.9224 10.548C72.9411 10.0627 72.9597 9.69867 72.9784 9.456L64.9984 22H61.9464V6.992H64.2704ZM74.0984 0.776C73.9677 2.176 73.4917 3.24 72.6704 3.968C71.8677 4.67733 70.5797 5.032 68.8064 5.032C66.9771 5.032 65.6797 4.67733 64.9144 3.968C64.1677 3.25867 63.7477 2.19467 63.6544 0.776H65.9504C66.0437 1.784 66.3051 2.46533 66.7344 2.82C67.1637 3.156 67.8731 3.324 68.8624 3.324C69.7211 3.324 70.3931 3.14667 70.8784 2.792C71.3824 2.41867 71.6811 1.74667 71.7744 0.776H74.0984ZM88.8146 6.992H91.5026L85.0906 14.216L92.0346 22H89.1786L82.4026 14.384V22H79.9386V6.992H82.4026V14.272L88.8146 6.992ZM97.0829 6.992V16.148C97.0829 16.3907 97.0736 16.736 97.0549 17.184C97.0362 17.6133 97.0082 18.0613 96.9709 18.528C96.9522 18.976 96.9336 19.3213 96.9149 19.564L104.951 6.992H107.975V22H105.679V13.152C105.679 12.8533 105.679 12.4613 105.679 11.976C105.698 11.4907 105.716 11.0147 105.735 10.548C105.754 10.0627 105.772 9.69867 105.791 9.456L97.8109 22H94.7589V6.992H97.0829ZM123.895 6.992V19.928H126.079V27.208H123.699V22H113.255V27.208H110.903V19.928H112.107C113.395 18.1547 114.356 16.1387 114.991 13.88C115.644 11.6027 115.98 9.30667 115.999 6.992H123.895ZM121.515 8.924H118.183C118.09 10.1933 117.884 11.5093 117.567 12.872C117.268 14.216 116.867 15.504 116.363 16.736C115.878 17.968 115.308 19.032 114.655 19.928H121.515V8.924ZM142.069 14.468C142.069 16.9507 141.434 18.8733 140.165 20.236C138.914 21.5987 137.215 22.28 135.069 22.28C133.743 22.28 132.558 21.9813 131.513 21.384C130.486 20.768 129.674 19.8813 129.077 18.724C128.479 17.548 128.181 16.1293 128.181 14.468C128.181 11.9853 128.797 10.072 130.029 8.728C131.279 7.384 132.987 6.712 135.153 6.712C136.497 6.712 137.691 7.02 138.737 7.636C139.782 8.23333 140.594 9.11067 141.173 10.268C141.77 11.4067 142.069 12.8067 142.069 14.468ZM130.729 14.468C130.729 16.2413 131.074 17.6507 131.765 18.696C132.474 19.7227 133.594 20.236 135.125 20.236C136.637 20.236 137.747 19.7227 138.457 18.696C139.166 17.6507 139.521 16.2413 139.521 14.468C139.521 12.6947 139.166 11.304 138.457 10.296C137.747 9.288 136.627 8.784 135.097 8.784C133.566 8.784 132.455 9.288 131.765 10.296C131.074 11.304 130.729 12.6947 130.729 14.468Z" fill="black"/>
</svg>
